<svg width="942" height="210" viewBox="0 0 942 210" fill="none" xmlns="http://www.w3.org/2000/svg">
<g filter="url(#filter0_d_231_1852)">
<g clip-path="url(#clip0_231_1852)">
<rect x="5" y="5" width="932" height="200" rx="20" fill="#2E50A6"/>
<rect width="141.26" height="114.946" rx="6" transform="matrix(0.699049 -0.715073 0.699078 0.715045 636.398 38.0107)" fill="#D0DCF8"/>
<rect width="141.26" height="114.946" rx="6" transform="matrix(0.699049 -0.715073 0.699078 0.715045 657.898 144.999)" fill="#D0DCF8"/>
<rect width="141.26" height="114.946" rx="6" transform="matrix(0.699049 -0.715073 0.699078 0.715045 538 206.808)" fill="#D0DCF8"/>
<path d="M58 95.25C57.2667 95.25 56.5333 95.1917 55.8 95.075C55.0667 94.975 54.375 94.8167 53.725 94.6C53.075 94.3667 52.4917 94.0833 51.975 93.75C51.675 93.55 51.4667 93.3083 51.35 93.025C51.2333 92.7417 51.1917 92.4667 51.225 92.2C51.275 91.9167 51.3833 91.675 51.55 91.475C51.7333 91.2583 51.9583 91.125 52.225 91.075C52.4917 91.025 52.7833 91.1 53.1 91.3C53.8333 91.7333 54.6083 92.05 55.425 92.25C56.2417 92.45 57.1 92.55 58 92.55C59.3167 92.55 60.275 92.3333 60.875 91.9C61.475 91.45 61.775 90.875 61.775 90.175C61.775 89.5917 61.5583 89.1333 61.125 88.8C60.7083 88.4667 59.9833 88.1917 58.95 87.975L56.2 87.4C54.6167 87.0667 53.4333 86.5083 52.65 85.725C51.8833 84.925 51.5 83.875 51.5 82.575C51.5 81.7583 51.6667 81.0167 52 80.35C52.3333 79.6833 52.8 79.1083 53.4 78.625C54.0167 78.1417 54.7417 77.775 55.575 77.525C56.425 77.2583 57.3583 77.125 58.375 77.125C59.375 77.125 60.325 77.25 61.225 77.5C62.125 77.75 62.9333 78.1167 63.65 78.6C63.9167 78.7833 64.0917 79.0083 64.175 79.275C64.275 79.5417 64.3 79.8083 64.25 80.075C64.2 80.325 64.0833 80.5417 63.9 80.725C63.7167 80.9083 63.4833 81.0167 63.2 81.05C62.9333 81.0833 62.625 81 62.275 80.8C61.6583 80.45 61.0333 80.2 60.4 80.05C59.7667 79.9 59.0833 79.825 58.35 79.825C57.5833 79.825 56.925 79.9333 56.375 80.15C55.825 80.3667 55.4 80.675 55.1 81.075C54.8167 81.4583 54.675 81.9167 54.675 82.45C54.675 83.05 54.875 83.5333 55.275 83.9C55.675 84.25 56.3583 84.525 57.325 84.725L60.05 85.3C61.7 85.65 62.925 86.2 63.725 86.95C64.5417 87.7 64.95 88.7 64.95 89.95C64.95 90.75 64.7833 91.475 64.45 92.125C64.1333 92.775 63.6667 93.3333 63.05 93.8C62.45 94.2667 61.725 94.625 60.875 94.875C60.025 95.125 59.0667 95.25 58 95.25ZM73.4215 95.25C72.0382 95.25 70.8465 94.9917 69.8465 94.475C68.8465 93.9583 68.0715 93.225 67.5215 92.275C66.9882 91.325 66.7215 90.2 66.7215 88.9C66.7215 87.6333 66.9798 86.525 67.4965 85.575C68.0298 84.625 68.7548 83.8833 69.6715 83.35C70.6048 82.8 71.6632 82.525 72.8465 82.525C73.7132 82.525 74.4882 82.6667 75.1715 82.95C75.8715 83.2333 76.4632 83.6417 76.9465 84.175C77.4465 84.7083 77.8215 85.3583 78.0715 86.125C78.3382 86.875 78.4715 87.725 78.4715 88.675C78.4715 88.975 78.3632 89.2083 78.1465 89.375C77.9465 89.525 77.6548 89.6 77.2715 89.6H69.2465V87.8H76.2715L75.8715 88.175C75.8715 87.4083 75.7548 86.7667 75.5215 86.25C75.3048 85.7333 74.9798 85.3417 74.5465 85.075C74.1298 84.7917 73.6048 84.65 72.9715 84.65C72.2715 84.65 71.6715 84.8167 71.1715 85.15C70.6882 85.4667 70.3132 85.925 70.0465 86.525C69.7965 87.1083 69.6715 87.8083 69.6715 88.625V88.8C69.6715 90.1667 69.9882 91.1917 70.6215 91.875C71.2715 92.5417 72.2215 92.875 73.4715 92.875C73.9048 92.875 74.3882 92.825 74.9215 92.725C75.4715 92.6083 75.9882 92.4167 76.4715 92.15C76.8215 91.95 77.1298 91.8667 77.3965 91.9C77.6632 91.9167 77.8715 92.0083 78.0215 92.175C78.1882 92.3417 78.2882 92.55 78.3215 92.8C78.3548 93.0333 78.3048 93.275 78.1715 93.525C78.0548 93.775 77.8465 93.9917 77.5465 94.175C76.9632 94.5417 76.2882 94.8167 75.5215 95C74.7715 95.1667 74.0715 95.25 73.4215 95.25ZM85.1213 95.25C83.738 95.25 82.6963 94.8583 81.9963 94.075C81.2963 93.275 80.9463 92.1083 80.9463 90.575V78.75C80.9463 78.2333 81.0796 77.8417 81.3463 77.575C81.613 77.3083 81.9963 77.175 82.4963 77.175C82.9963 77.175 83.3796 77.3083 83.6463 77.575C83.9296 77.8417 84.0713 78.2333 84.0713 78.75V90.425C84.0713 91.1917 84.2296 91.7583 84.5463 92.125C84.8796 92.4917 85.3463 92.675 85.9463 92.675C86.0796 92.675 86.2046 92.675 86.3213 92.675C86.438 92.6583 86.5546 92.6417 86.6713 92.625C86.9046 92.5917 87.063 92.6583 87.1463 92.825C87.2296 92.975 87.2713 93.2917 87.2713 93.775C87.2713 94.1917 87.188 94.5167 87.0213 94.75C86.8546 94.9833 86.5796 95.125 86.1963 95.175C86.0296 95.1917 85.8546 95.2083 85.6713 95.225C85.488 95.2417 85.3046 95.25 85.1213 95.25ZM92.9547 95.25C92.0714 95.25 91.2797 95.0833 90.5797 94.75C89.8964 94.4 89.3547 93.9333 88.9547 93.35C88.5714 92.7667 88.3797 92.1083 88.3797 91.375C88.3797 90.475 88.613 89.7667 89.0797 89.25C89.5464 88.7167 90.3047 88.3333 91.3547 88.1C92.4047 87.8667 93.813 87.75 95.5797 87.75H96.8297V89.55H95.6047C94.5714 89.55 93.7464 89.6 93.1297 89.7C92.513 89.8 92.0714 89.975 91.8047 90.225C91.5547 90.4583 91.4297 90.7917 91.4297 91.225C91.4297 91.775 91.6214 92.225 92.0047 92.575C92.388 92.925 92.9214 93.1 93.6047 93.1C94.1547 93.1 94.638 92.975 95.0547 92.725C95.488 92.4583 95.8297 92.1 96.0797 91.65C96.3297 91.2 96.4547 90.6833 96.4547 90.1V87.225C96.4547 86.3917 96.2714 85.7917 95.9047 85.425C95.538 85.0583 94.9214 84.875 94.0547 84.875C93.5714 84.875 93.0464 84.9333 92.4797 85.05C91.9297 85.1667 91.3464 85.3667 90.7297 85.65C90.413 85.8 90.1297 85.8417 89.8797 85.775C89.6464 85.7083 89.463 85.575 89.3297 85.375C89.1964 85.1583 89.1297 84.925 89.1297 84.675C89.1297 84.425 89.1964 84.1833 89.3297 83.95C89.463 83.7 89.688 83.5167 90.0047 83.4C90.7714 83.0833 91.5047 82.8583 92.2047 82.725C92.9214 82.5917 93.5714 82.525 94.1547 82.525C95.3547 82.525 96.338 82.7083 97.1047 83.075C97.888 83.4417 98.4714 84 98.8547 84.75C99.238 85.4833 99.4297 86.4333 99.4297 87.6V93.6C99.4297 94.1167 99.3047 94.5167 99.0547 94.8C98.8047 95.0667 98.4464 95.2 97.9797 95.2C97.513 95.2 97.1464 95.0667 96.8797 94.8C96.6297 94.5167 96.5047 94.1167 96.5047 93.6V92.4H96.7047C96.588 92.9833 96.3547 93.4917 96.0047 93.925C95.6714 94.3417 95.2464 94.6667 94.7297 94.9C94.213 95.1333 93.6214 95.25 92.9547 95.25ZM104.202 95.2C103.702 95.2 103.318 95.0667 103.052 94.8C102.785 94.5167 102.652 94.1167 102.652 93.6V84.15C102.652 83.6333 102.785 83.2417 103.052 82.975C103.318 82.7083 103.693 82.575 104.177 82.575C104.66 82.575 105.035 82.7083 105.302 82.975C105.568 83.2417 105.702 83.6333 105.702 84.15V85.975L105.427 85.225C105.76 84.3917 106.277 83.7333 106.977 83.25C107.677 82.7667 108.51 82.525 109.477 82.525C110.46 82.525 111.268 82.7583 111.902 83.225C112.535 83.6917 112.977 84.4083 113.227 85.375H112.877C113.21 84.4917 113.76 83.8 114.527 83.3C115.293 82.7833 116.177 82.525 117.177 82.525C118.11 82.525 118.877 82.7083 119.477 83.075C120.093 83.4417 120.552 84 120.852 84.75C121.152 85.4833 121.302 86.4167 121.302 87.55V93.6C121.302 94.1167 121.16 94.5167 120.877 94.8C120.61 95.0667 120.227 95.2 119.727 95.2C119.227 95.2 118.843 95.0667 118.577 94.8C118.31 94.5167 118.177 94.1167 118.177 93.6V87.675C118.177 86.7417 118.018 86.0583 117.702 85.625C117.402 85.1917 116.885 84.975 116.152 84.975C115.335 84.975 114.693 85.2667 114.227 85.85C113.76 86.4167 113.527 87.2083 113.527 88.225V93.6C113.527 94.1167 113.393 94.5167 113.127 94.8C112.86 95.0667 112.477 95.2 111.977 95.2C111.477 95.2 111.085 95.0667 110.802 94.8C110.535 94.5167 110.402 94.1167 110.402 93.6V87.675C110.402 86.7417 110.243 86.0583 109.927 85.625C109.627 85.1917 109.118 84.975 108.402 84.975C107.585 84.975 106.943 85.2667 106.477 85.85C106.01 86.4167 105.777 87.2083 105.777 88.225V93.6C105.777 94.6667 105.252 95.2 104.202 95.2ZM128.55 95.25C127.667 95.25 126.875 95.0833 126.175 94.75C125.492 94.4 124.95 93.9333 124.55 93.35C124.167 92.7667 123.975 92.1083 123.975 91.375C123.975 90.475 124.209 89.7667 124.675 89.25C125.142 88.7167 125.9 88.3333 126.95 88.1C128 87.8667 129.409 87.75 131.175 87.75H132.425V89.55H131.2C130.167 89.55 129.342 89.6 128.725 89.7C128.109 89.8 127.667 89.975 127.4 90.225C127.15 90.4583 127.025 90.7917 127.025 91.225C127.025 91.775 127.217 92.225 127.6 92.575C127.984 92.925 128.517 93.1 129.2 93.1C129.75 93.1 130.234 92.975 130.65 92.725C131.084 92.4583 131.425 92.1 131.675 91.65C131.925 91.2 132.05 90.6833 132.05 90.1V87.225C132.05 86.3917 131.867 85.7917 131.5 85.425C131.134 85.0583 130.517 84.875 129.65 84.875C129.167 84.875 128.642 84.9333 128.075 85.05C127.525 85.1667 126.942 85.3667 126.325 85.65C126.009 85.8 125.725 85.8417 125.475 85.775C125.242 85.7083 125.059 85.575 124.925 85.375C124.792 85.1583 124.725 84.925 124.725 84.675C124.725 84.425 124.792 84.1833 124.925 83.95C125.059 83.7 125.284 83.5167 125.6 83.4C126.367 83.0833 127.1 82.8583 127.8 82.725C128.517 82.5917 129.167 82.525 129.75 82.525C130.95 82.525 131.934 82.7083 132.7 83.075C133.484 83.4417 134.067 84 134.45 84.75C134.834 85.4833 135.025 86.4333 135.025 87.6V93.6C135.025 94.1167 134.9 94.5167 134.65 94.8C134.4 95.0667 134.042 95.2 133.575 95.2C133.109 95.2 132.742 95.0667 132.475 94.8C132.225 94.5167 132.1 94.1167 132.1 93.6V92.4H132.3C132.184 92.9833 131.95 93.4917 131.6 93.925C131.267 94.3417 130.842 94.6667 130.325 94.9C129.809 95.1333 129.217 95.25 128.55 95.25ZM143.797 95.25C142.714 95.25 141.806 95.0667 141.072 94.7C140.356 94.3333 139.822 93.8 139.472 93.1C139.122 92.3833 138.947 91.5 138.947 90.45V85.125H137.647C137.247 85.125 136.939 85.025 136.722 84.825C136.506 84.6083 136.397 84.3167 136.397 83.95C136.397 83.5667 136.506 83.275 136.722 83.075C136.939 82.875 137.247 82.775 137.647 82.775H138.947V80.5C138.947 79.9833 139.081 79.5917 139.347 79.325C139.631 79.0583 140.022 78.925 140.522 78.925C141.022 78.925 141.406 79.0583 141.672 79.325C141.939 79.5917 142.072 79.9833 142.072 80.5V82.775H144.722C145.122 82.775 145.431 82.875 145.647 83.075C145.864 83.275 145.972 83.5667 145.972 83.95C145.972 84.3167 145.864 84.6083 145.647 84.825C145.431 85.025 145.122 85.125 144.722 85.125H142.072V90.275C142.072 91.075 142.247 91.675 142.597 92.075C142.947 92.475 143.514 92.675 144.297 92.675C144.581 92.675 144.831 92.65 145.047 92.6C145.264 92.55 145.456 92.5167 145.622 92.5C145.822 92.4833 145.989 92.55 146.122 92.7C146.256 92.8333 146.322 93.1167 146.322 93.55C146.322 93.8833 146.264 94.1833 146.147 94.45C146.047 94.7 145.856 94.875 145.572 94.975C145.356 95.0417 145.072 95.1 144.722 95.15C144.372 95.2167 144.064 95.25 143.797 95.25ZM156.579 95C156.029 95 155.604 94.8583 155.304 94.575C155.021 94.275 154.879 93.85 154.879 93.3V79.075C154.879 78.525 155.021 78.1083 155.304 77.825C155.604 77.525 156.029 77.375 156.579 77.375H161.429C164.379 77.375 166.654 78.1333 168.254 79.65C169.871 81.1667 170.679 83.3417 170.679 86.175C170.679 87.5917 170.471 88.85 170.054 89.95C169.654 91.0333 169.054 91.95 168.254 92.7C167.471 93.45 166.504 94.025 165.354 94.425C164.221 94.8083 162.912 95 161.429 95H156.579ZM158.079 92.35H161.229C162.262 92.35 163.154 92.225 163.904 91.975C164.671 91.7083 165.304 91.325 165.804 90.825C166.321 90.3083 166.704 89.6667 166.954 88.9C167.204 88.1167 167.329 87.2083 167.329 86.175C167.329 84.1083 166.821 82.5667 165.804 81.55C164.787 80.5333 163.262 80.025 161.229 80.025H158.079V92.35ZM177.647 95.25C176.764 95.25 175.972 95.0833 175.272 94.75C174.589 94.4 174.047 93.9333 173.647 93.35C173.264 92.7667 173.072 92.1083 173.072 91.375C173.072 90.475 173.305 89.7667 173.772 89.25C174.239 88.7167 174.997 88.3333 176.047 88.1C177.097 87.8667 178.505 87.75 180.272 87.75H181.522V89.55H180.297C179.264 89.55 178.439 89.6 177.822 89.7C177.205 89.8 176.764 89.975 176.497 90.225C176.247 90.4583 176.122 90.7917 176.122 91.225C176.122 91.775 176.314 92.225 176.697 92.575C177.08 92.925 177.614 93.1 178.297 93.1C178.847 93.1 179.33 92.975 179.747 92.725C180.18 92.4583 180.522 92.1 180.772 91.65C181.022 91.2 181.147 90.6833 181.147 90.1V87.225C181.147 86.3917 180.964 85.7917 180.597 85.425C180.23 85.0583 179.614 84.875 178.747 84.875C178.264 84.875 177.739 84.9333 177.172 85.05C176.622 85.1667 176.039 85.3667 175.422 85.65C175.105 85.8 174.822 85.8417 174.572 85.775C174.339 85.7083 174.155 85.575 174.022 85.375C173.889 85.1583 173.822 84.925 173.822 84.675C173.822 84.425 173.889 84.1833 174.022 83.95C174.155 83.7 174.38 83.5167 174.697 83.4C175.464 83.0833 176.197 82.8583 176.897 82.725C177.614 82.5917 178.264 82.525 178.847 82.525C180.047 82.525 181.03 82.7083 181.797 83.075C182.58 83.4417 183.164 84 183.547 84.75C183.93 85.4833 184.122 86.4333 184.122 87.6V93.6C184.122 94.1167 183.997 94.5167 183.747 94.8C183.497 95.0667 183.139 95.2 182.672 95.2C182.205 95.2 181.839 95.0667 181.572 94.8C181.322 94.5167 181.197 94.1167 181.197 93.6V92.4H181.397C181.28 92.9833 181.047 93.4917 180.697 93.925C180.364 94.3417 179.939 94.6667 179.422 94.9C178.905 95.1333 178.314 95.25 177.647 95.25ZM192.894 95.25C191.811 95.25 190.902 95.0667 190.169 94.7C189.452 94.3333 188.919 93.8 188.569 93.1C188.219 92.3833 188.044 91.5 188.044 90.45V85.125H186.744C186.344 85.125 186.036 85.025 185.819 84.825C185.602 84.6083 185.494 84.3167 185.494 83.95C185.494 83.5667 185.602 83.275 185.819 83.075C186.036 82.875 186.344 82.775 186.744 82.775H188.044V80.5C188.044 79.9833 188.177 79.5917 188.444 79.325C188.727 79.0583 189.119 78.925 189.619 78.925C190.119 78.925 190.502 79.0583 190.769 79.325C191.036 79.5917 191.169 79.9833 191.169 80.5V82.775H193.819C194.219 82.775 194.527 82.875 194.744 83.075C194.961 83.275 195.069 83.5667 195.069 83.95C195.069 84.3167 194.961 84.6083 194.744 84.825C194.527 85.025 194.219 85.125 193.819 85.125H191.169V90.275C191.169 91.075 191.344 91.675 191.694 92.075C192.044 92.475 192.611 92.675 193.394 92.675C193.677 92.675 193.927 92.65 194.144 92.6C194.361 92.55 194.552 92.5167 194.719 92.5C194.919 92.4833 195.086 92.55 195.219 92.7C195.352 92.8333 195.419 93.1167 195.419 93.55C195.419 93.8833 195.361 94.1833 195.244 94.45C195.144 94.7 194.952 94.875 194.669 94.975C194.452 95.0417 194.169 95.1 193.819 95.15C193.469 95.2167 193.161 95.25 192.894 95.25ZM200.914 95.25C200.03 95.25 199.239 95.0833 198.539 94.75C197.855 94.4 197.314 93.9333 196.914 93.35C196.53 92.7667 196.339 92.1083 196.339 91.375C196.339 90.475 196.572 89.7667 197.039 89.25C197.505 88.7167 198.264 88.3333 199.314 88.1C200.364 87.8667 201.772 87.75 203.539 87.75H204.789V89.55H203.564C202.53 89.55 201.705 89.6 201.089 89.7C200.472 89.8 200.03 89.975 199.764 90.225C199.514 90.4583 199.389 90.7917 199.389 91.225C199.389 91.775 199.58 92.225 199.964 92.575C200.347 92.925 200.88 93.1 201.564 93.1C202.114 93.1 202.597 92.975 203.014 92.725C203.447 92.4583 203.789 92.1 204.039 91.65C204.289 91.2 204.414 90.6833 204.414 90.1V87.225C204.414 86.3917 204.23 85.7917 203.864 85.425C203.497 85.0583 202.88 84.875 202.014 84.875C201.53 84.875 201.005 84.9333 200.439 85.05C199.889 85.1667 199.305 85.3667 198.689 85.65C198.372 85.8 198.089 85.8417 197.839 85.775C197.605 85.7083 197.422 85.575 197.289 85.375C197.155 85.1583 197.089 84.925 197.089 84.675C197.089 84.425 197.155 84.1833 197.289 83.95C197.422 83.7 197.647 83.5167 197.964 83.4C198.73 83.0833 199.464 82.8583 200.164 82.725C200.88 82.5917 201.53 82.525 202.114 82.525C203.314 82.525 204.297 82.7083 205.064 83.075C205.847 83.4417 206.43 84 206.814 84.75C207.197 85.4833 207.389 86.4333 207.389 87.6V93.6C207.389 94.1167 207.264 94.5167 207.014 94.8C206.764 95.0667 206.405 95.2 205.939 95.2C205.472 95.2 205.105 95.0667 204.839 94.8C204.589 94.5167 204.464 94.1167 204.464 93.6V92.4H204.664C204.547 92.9833 204.314 93.4917 203.964 93.925C203.63 94.3417 203.205 94.6667 202.689 94.9C202.172 95.1333 201.58 95.25 200.914 95.25ZM212.111 95.2C211.611 95.2 211.227 95.0667 210.961 94.8C210.694 94.5167 210.561 94.1167 210.561 93.6V84.15C210.561 83.6333 210.694 83.2417 210.961 82.975C211.227 82.7083 211.602 82.575 212.086 82.575C212.569 82.575 212.944 82.7083 213.211 82.975C213.477 83.2417 213.611 83.6333 213.611 84.15V85.85L213.336 85.225C213.702 84.3417 214.269 83.675 215.036 83.225C215.819 82.7583 216.702 82.525 217.686 82.525C218.669 82.525 219.477 82.7083 220.111 83.075C220.744 83.4417 221.219 84 221.536 84.75C221.852 85.4833 222.011 86.4167 222.011 87.55V93.6C222.011 94.1167 221.877 94.5167 221.611 94.8C221.344 95.0667 220.961 95.2 220.461 95.2C219.961 95.2 219.569 95.0667 219.286 94.8C219.019 94.5167 218.886 94.1167 218.886 93.6V87.7C218.886 86.75 218.702 86.0583 218.336 85.625C217.986 85.1917 217.436 84.975 216.686 84.975C215.769 84.975 215.036 85.2667 214.486 85.85C213.952 86.4167 213.686 87.175 213.686 88.125V93.6C213.686 94.6667 213.161 95.2 212.111 95.2ZM230.885 99.75C229.985 99.75 229.11 99.6667 228.26 99.5C227.426 99.3333 226.668 99.075 225.985 98.725C225.668 98.5583 225.451 98.3583 225.335 98.125C225.235 97.8917 225.201 97.65 225.235 97.4C225.285 97.1667 225.385 96.9583 225.535 96.775C225.701 96.5917 225.901 96.4667 226.135 96.4C226.368 96.3333 226.61 96.3667 226.86 96.5C227.593 96.8667 228.285 97.1 228.935 97.2C229.601 97.3167 230.168 97.375 230.635 97.375C231.751 97.375 232.585 97.1 233.135 96.55C233.701 96.0167 233.985 95.2167 233.985 94.15V91.9H234.21C233.96 92.75 233.435 93.4333 232.635 93.95C231.851 94.45 230.96 94.7 229.96 94.7C228.86 94.7 227.901 94.45 227.085 93.95C226.268 93.4333 225.635 92.7167 225.185 91.8C224.735 90.8833 224.51 89.8167 224.51 88.6C224.51 87.6833 224.635 86.8583 224.885 86.125C225.151 85.375 225.518 84.7333 225.985 84.2C226.468 83.6667 227.043 83.2583 227.71 82.975C228.393 82.675 229.143 82.525 229.96 82.525C230.993 82.525 231.893 82.7833 232.66 83.3C233.443 83.8 233.951 84.4667 234.185 85.3L233.935 85.925V84.15C233.935 83.6333 234.068 83.2417 234.335 82.975C234.618 82.7083 235.001 82.575 235.485 82.575C235.985 82.575 236.368 82.7083 236.635 82.975C236.901 83.2417 237.035 83.6333 237.035 84.15V93.775C237.035 95.7583 236.51 97.25 235.46 98.25C234.41 99.25 232.885 99.75 230.885 99.75ZM230.81 92.325C231.46 92.325 232.018 92.175 232.485 91.875C232.951 91.575 233.31 91.15 233.56 90.6C233.826 90.0333 233.96 89.3667 233.96 88.6C233.96 87.45 233.676 86.55 233.11 85.9C232.543 85.2333 231.776 84.9 230.81 84.9C230.16 84.9 229.601 85.05 229.135 85.35C228.668 85.65 228.301 86.075 228.035 86.625C227.785 87.175 227.66 87.8333 227.66 88.6C227.66 89.75 227.943 90.6583 228.51 91.325C229.076 91.9917 229.843 92.325 230.81 92.325ZM248.96 95.2C248.443 95.2 248.043 95.0583 247.76 94.775C247.493 94.475 247.36 94.0667 247.36 93.55V79C247.36 78.4667 247.501 78.0667 247.785 77.8C248.068 77.5167 248.468 77.375 248.985 77.375H255.01C256.943 77.375 258.435 77.8583 259.485 78.825C260.535 79.7917 261.06 81.1417 261.06 82.875C261.06 84.6083 260.535 85.9667 259.485 86.95C258.435 87.9167 256.943 88.4 255.01 88.4H250.56V93.55C250.56 94.0667 250.426 94.475 250.16 94.775C249.893 95.0583 249.493 95.2 248.96 95.2ZM250.56 85.875H254.51C255.643 85.875 256.501 85.625 257.085 85.125C257.668 84.6083 257.96 83.8583 257.96 82.875C257.96 81.8917 257.668 81.15 257.085 80.65C256.501 80.15 255.643 79.9 254.51 79.9H250.56V85.875ZM266.807 95.25C265.924 95.25 265.132 95.0833 264.432 94.75C263.749 94.4 263.207 93.9333 262.807 93.35C262.424 92.7667 262.232 92.1083 262.232 91.375C262.232 90.475 262.466 89.7667 262.932 89.25C263.399 88.7167 264.157 88.3333 265.207 88.1C266.257 87.8667 267.666 87.75 269.432 87.75H270.682V89.55H269.457C268.424 89.55 267.599 89.6 266.982 89.7C266.366 89.8 265.924 89.975 265.657 90.225C265.407 90.4583 265.282 90.7917 265.282 91.225C265.282 91.775 265.474 92.225 265.857 92.575C266.241 92.925 266.774 93.1 267.457 93.1C268.007 93.1 268.491 92.975 268.907 92.725C269.341 92.4583 269.682 92.1 269.932 91.65C270.182 91.2 270.307 90.6833 270.307 90.1V87.225C270.307 86.3917 270.124 85.7917 269.757 85.425C269.391 85.0583 268.774 84.875 267.907 84.875C267.424 84.875 266.899 84.9333 266.332 85.05C265.782 85.1667 265.199 85.3667 264.582 85.65C264.266 85.8 263.982 85.8417 263.732 85.775C263.499 85.7083 263.316 85.575 263.182 85.375C263.049 85.1583 262.982 84.925 262.982 84.675C262.982 84.425 263.049 84.1833 263.182 83.95C263.316 83.7 263.541 83.5167 263.857 83.4C264.624 83.0833 265.357 82.8583 266.057 82.725C266.774 82.5917 267.424 82.525 268.007 82.525C269.207 82.525 270.191 82.7083 270.957 83.075C271.741 83.4417 272.324 84 272.707 84.75C273.091 85.4833 273.282 86.4333 273.282 87.6V93.6C273.282 94.1167 273.157 94.5167 272.907 94.8C272.657 95.0667 272.299 95.2 271.832 95.2C271.366 95.2 270.999 95.0667 270.732 94.8C270.482 94.5167 270.357 94.1167 270.357 93.6V92.4H270.557C270.441 92.9833 270.207 93.4917 269.857 93.925C269.524 94.3417 269.099 94.6667 268.582 94.9C268.066 95.1333 267.474 95.25 266.807 95.25ZM281.154 95.25C280.087 95.25 279.146 94.9917 278.329 94.475C277.529 93.9583 276.904 93.225 276.454 92.275C276.004 91.3083 275.779 90.175 275.779 88.875C275.779 87.5583 276.004 86.4333 276.454 85.5C276.904 84.55 277.529 83.8167 278.329 83.3C279.146 82.7833 280.087 82.525 281.154 82.525C282.171 82.525 283.054 82.775 283.804 83.275C284.571 83.775 285.087 84.4333 285.354 85.25H285.079V78.75C285.079 78.2333 285.212 77.8417 285.479 77.575C285.746 77.3083 286.129 77.175 286.629 77.175C287.129 77.175 287.512 77.3083 287.779 77.575C288.062 77.8417 288.204 78.2333 288.204 78.75V93.6C288.204 94.1167 288.071 94.5167 287.804 94.8C287.537 95.0667 287.154 95.2 286.654 95.2C286.154 95.2 285.771 95.0667 285.504 94.8C285.237 94.5167 285.104 94.1167 285.104 93.6V91.65L285.379 92.4C285.129 93.2667 284.621 93.9583 283.854 94.475C283.087 94.9917 282.187 95.25 281.154 95.25ZM282.029 92.875C282.646 92.875 283.187 92.725 283.654 92.425C284.121 92.125 284.479 91.6833 284.729 91.1C284.996 90.5 285.129 89.7583 285.129 88.875C285.129 87.5417 284.846 86.55 284.279 85.9C283.712 85.2333 282.962 84.9 282.029 84.9C281.412 84.9 280.871 85.05 280.404 85.35C279.937 85.6333 279.571 86.075 279.304 86.675C279.054 87.2583 278.929 87.9917 278.929 88.875C278.929 90.1917 279.212 91.1917 279.779 91.875C280.346 92.5417 281.096 92.875 282.029 92.875ZM295.469 95.25C294.586 95.25 293.794 95.0833 293.094 94.75C292.411 94.4 291.869 93.9333 291.469 93.35C291.086 92.7667 290.894 92.1083 290.894 91.375C290.894 90.475 291.128 89.7667 291.594 89.25C292.061 88.7167 292.819 88.3333 293.869 88.1C294.919 87.8667 296.328 87.75 298.094 87.75H299.344V89.55H298.119C297.086 89.55 296.261 89.6 295.644 89.7C295.028 89.8 294.586 89.975 294.319 90.225C294.069 90.4583 293.944 90.7917 293.944 91.225C293.944 91.775 294.136 92.225 294.519 92.575C294.903 92.925 295.436 93.1 296.119 93.1C296.669 93.1 297.153 92.975 297.569 92.725C298.003 92.4583 298.344 92.1 298.594 91.65C298.844 91.2 298.969 90.6833 298.969 90.1V87.225C298.969 86.3917 298.786 85.7917 298.419 85.425C298.053 85.0583 297.436 84.875 296.569 84.875C296.086 84.875 295.561 84.9333 294.994 85.05C294.444 85.1667 293.861 85.3667 293.244 85.65C292.928 85.8 292.644 85.8417 292.394 85.775C292.161 85.7083 291.978 85.575 291.844 85.375C291.711 85.1583 291.644 84.925 291.644 84.675C291.644 84.425 291.711 84.1833 291.844 83.95C291.978 83.7 292.203 83.5167 292.519 83.4C293.286 83.0833 294.019 82.8583 294.719 82.725C295.436 82.5917 296.086 82.525 296.669 82.525C297.869 82.525 298.853 82.7083 299.619 83.075C300.403 83.4417 300.986 84 301.369 84.75C301.753 85.4833 301.944 86.4333 301.944 87.6V93.6C301.944 94.1167 301.819 94.5167 301.569 94.8C301.319 95.0667 300.961 95.2 300.494 95.2C300.028 95.2 299.661 95.0667 299.394 94.8C299.144 94.5167 299.019 94.1167 299.019 93.6V92.4H299.219C299.103 92.9833 298.869 93.4917 298.519 93.925C298.186 94.3417 297.761 94.6667 297.244 94.9C296.728 95.1333 296.136 95.25 295.469 95.25ZM312.378 95.2C311.978 95.2 311.653 95.1083 311.403 94.925C311.17 94.7417 311.028 94.5 310.978 94.2C310.928 93.8833 310.987 93.5333 311.153 93.15L317.753 78.525C317.97 78.0417 318.228 77.7 318.528 77.5C318.845 77.2833 319.203 77.175 319.603 77.175C319.987 77.175 320.328 77.2833 320.628 77.5C320.945 77.7 321.212 78.0417 321.428 78.525L328.053 93.15C328.237 93.5333 328.303 93.8833 328.253 94.2C328.203 94.5167 328.062 94.7667 327.828 94.95C327.595 95.1167 327.287 95.2 326.903 95.2C326.437 95.2 326.07 95.0917 325.803 94.875C325.553 94.6417 325.328 94.2917 325.128 93.825L323.503 90.05L324.853 90.925H314.303L315.653 90.05L314.053 93.825C313.837 94.3083 313.612 94.6583 313.378 94.875C313.145 95.0917 312.812 95.2 312.378 95.2ZM319.553 80.85L316.053 89.175L315.403 88.375H323.753L323.128 89.175L319.603 80.85H319.553ZM332.057 99.7C331.557 99.7 331.174 99.5667 330.907 99.3C330.64 99.0333 330.507 98.6417 330.507 98.125V84.15C330.507 83.6333 330.64 83.2417 330.907 82.975C331.174 82.7083 331.549 82.575 332.032 82.575C332.532 82.575 332.915 82.7083 333.182 82.975C333.449 83.2417 333.582 83.6333 333.582 84.15V86.1L333.307 85.35C333.557 84.5 334.065 83.8167 334.832 83.3C335.615 82.7833 336.524 82.525 337.557 82.525C338.624 82.525 339.557 82.7833 340.357 83.3C341.174 83.8167 341.807 84.55 342.257 85.5C342.707 86.4333 342.932 87.5583 342.932 88.875C342.932 90.175 342.707 91.3083 342.257 92.275C341.807 93.225 341.182 93.9583 340.382 94.475C339.582 94.9917 338.64 95.25 337.557 95.25C336.54 95.25 335.649 95 334.882 94.5C334.115 93.9833 333.599 93.3167 333.332 92.5H333.632V98.125C333.632 98.6417 333.49 99.0333 333.207 99.3C332.94 99.5667 332.557 99.7 332.057 99.7ZM336.682 92.875C337.299 92.875 337.84 92.725 338.307 92.425C338.774 92.125 339.132 91.6833 339.382 91.1C339.649 90.5 339.782 89.7583 339.782 88.875C339.782 87.5417 339.499 86.55 338.932 85.9C338.365 85.2333 337.615 84.9 336.682 84.9C336.065 84.9 335.524 85.05 335.057 85.35C334.59 85.6333 334.224 86.075 333.957 86.675C333.707 87.2583 333.582 87.9917 333.582 88.875C333.582 90.1917 333.865 91.1917 334.432 91.875C334.999 92.5417 335.749 92.875 336.682 92.875ZM349.672 95.25C348.289 95.25 347.247 94.8583 346.547 94.075C345.847 93.275 345.497 92.1083 345.497 90.575V78.75C345.497 78.2333 345.63 77.8417 345.897 77.575C346.164 77.3083 346.547 77.175 347.047 77.175C347.547 77.175 347.93 77.3083 348.197 77.575C348.48 77.8417 348.622 78.2333 348.622 78.75V90.425C348.622 91.1917 348.78 91.7583 349.097 92.125C349.43 92.4917 349.897 92.675 350.497 92.675C350.63 92.675 350.755 92.675 350.872 92.675C350.989 92.6583 351.105 92.6417 351.222 92.625C351.455 92.5917 351.614 92.6583 351.697 92.825C351.78 92.975 351.822 93.2917 351.822 93.775C351.822 94.1917 351.739 94.5167 351.572 94.75C351.405 94.9833 351.13 95.125 350.747 95.175C350.58 95.1917 350.405 95.2083 350.222 95.225C350.039 95.2417 349.855 95.25 349.672 95.25ZM355.03 95.175C354.53 95.175 354.147 95.025 353.88 94.725C353.614 94.425 353.48 94.0083 353.48 93.475V84.3C353.48 83.75 353.614 83.3333 353.88 83.05C354.147 82.75 354.53 82.6 355.03 82.6C355.53 82.6 355.914 82.75 356.18 83.05C356.464 83.3333 356.605 83.75 356.605 84.3V93.475C356.605 94.0083 356.472 94.425 356.205 94.725C355.939 95.025 355.547 95.175 355.03 95.175ZM355.03 80.275C354.447 80.275 353.989 80.1333 353.655 79.85C353.339 79.55 353.18 79.1417 353.18 78.625C353.18 78.0917 353.339 77.6833 353.655 77.4C353.989 77.1167 354.447 76.975 355.03 76.975C355.63 76.975 356.089 77.1167 356.405 77.4C356.722 77.6833 356.88 78.0917 356.88 78.625C356.88 79.1417 356.722 79.55 356.405 79.85C356.089 80.1333 355.63 80.275 355.03 80.275ZM361.403 95.2C360.903 95.2 360.519 95.0667 360.253 94.8C359.986 94.5167 359.853 94.1167 359.853 93.6V78.75C359.853 78.2333 359.986 77.8417 360.253 77.575C360.519 77.3083 360.903 77.175 361.403 77.175C361.903 77.175 362.286 77.3083 362.553 77.575C362.836 77.8417 362.978 78.2333 362.978 78.75V87.975H363.028L367.153 83.625C367.486 83.2917 367.778 83.0333 368.028 82.85C368.278 82.6667 368.619 82.575 369.053 82.575C369.486 82.575 369.811 82.6917 370.028 82.925C370.261 83.1417 370.378 83.4083 370.378 83.725C370.378 84.0417 370.228 84.3583 369.928 84.675L365.578 89.275V87.975L370.353 93.125C370.653 93.4417 370.786 93.7667 370.753 94.1C370.736 94.4167 370.603 94.6833 370.353 94.9C370.103 95.1 369.786 95.2 369.403 95.2C368.936 95.2 368.561 95.1083 368.278 94.925C368.011 94.7417 367.711 94.4667 367.378 94.1L363.028 89.55H362.978V93.6C362.978 94.6667 362.453 95.2 361.403 95.2ZM377.159 95.25C376.275 95.25 375.484 95.0833 374.784 94.75C374.1 94.4 373.559 93.9333 373.159 93.35C372.775 92.7667 372.584 92.1083 372.584 91.375C372.584 90.475 372.817 89.7667 373.284 89.25C373.75 88.7167 374.509 88.3333 375.559 88.1C376.609 87.8667 378.017 87.75 379.784 87.75H381.034V89.55H379.809C378.775 89.55 377.95 89.6 377.334 89.7C376.717 89.8 376.275 89.975 376.009 90.225C375.759 90.4583 375.634 90.7917 375.634 91.225C375.634 91.775 375.825 92.225 376.209 92.575C376.592 92.925 377.125 93.1 377.809 93.1C378.359 93.1 378.842 92.975 379.259 92.725C379.692 92.4583 380.034 92.1 380.284 91.65C380.534 91.2 380.659 90.6833 380.659 90.1V87.225C380.659 86.3917 380.475 85.7917 380.109 85.425C379.742 85.0583 379.125 84.875 378.259 84.875C377.775 84.875 377.25 84.9333 376.684 85.05C376.134 85.1667 375.55 85.3667 374.934 85.65C374.617 85.8 374.334 85.8417 374.084 85.775C373.85 85.7083 373.667 85.575 373.534 85.375C373.4 85.1583 373.334 84.925 373.334 84.675C373.334 84.425 373.4 84.1833 373.534 83.95C373.667 83.7 373.892 83.5167 374.209 83.4C374.975 83.0833 375.709 82.8583 376.409 82.725C377.125 82.5917 377.775 82.525 378.359 82.525C379.559 82.525 380.542 82.7083 381.309 83.075C382.092 83.4417 382.675 84 383.059 84.75C383.442 85.4833 383.634 86.4333 383.634 87.6V93.6C383.634 94.1167 383.509 94.5167 383.259 94.8C383.009 95.0667 382.65 95.2 382.184 95.2C381.717 95.2 381.35 95.0667 381.084 94.8C380.834 94.5167 380.709 94.1167 380.709 93.6V92.4H380.909C380.792 92.9833 380.559 93.4917 380.209 93.925C379.875 94.3417 379.45 94.6667 378.934 94.9C378.417 95.1333 377.825 95.25 377.159 95.25ZM391.281 95.25C390.564 95.25 389.806 95.175 389.006 95.025C388.206 94.875 387.489 94.6167 386.856 94.25C386.589 94.0833 386.397 93.8917 386.281 93.675C386.181 93.4417 386.139 93.2167 386.156 93C386.189 92.7667 386.272 92.5667 386.406 92.4C386.556 92.2333 386.739 92.125 386.956 92.075C387.189 92.025 387.439 92.0667 387.706 92.2C388.372 92.5167 388.997 92.7417 389.581 92.875C390.164 92.9917 390.739 93.05 391.306 93.05C392.106 93.05 392.697 92.9167 393.081 92.65C393.481 92.3667 393.681 92 393.681 91.55C393.681 91.1667 393.547 90.875 393.281 90.675C393.031 90.4583 392.647 90.3 392.131 90.2L389.631 89.725C388.597 89.525 387.806 89.15 387.256 88.6C386.722 88.0333 386.456 87.3083 386.456 86.425C386.456 85.625 386.672 84.9333 387.106 84.35C387.556 83.7667 388.172 83.3167 388.956 83C389.739 82.6833 390.639 82.525 391.656 82.525C392.389 82.525 393.072 82.6083 393.706 82.775C394.356 82.925 394.981 83.1667 395.581 83.5C395.831 83.6333 395.997 83.8083 396.081 84.025C396.181 84.2417 396.206 84.4667 396.156 84.7C396.106 84.9167 396.006 85.1167 395.856 85.3C395.706 85.4667 395.514 85.575 395.281 85.625C395.064 85.6583 394.814 85.6083 394.531 85.475C394.014 85.2083 393.514 85.0167 393.031 84.9C392.564 84.7833 392.114 84.725 391.681 84.725C390.864 84.725 390.256 84.8667 389.856 85.15C389.472 85.4333 389.281 85.8083 389.281 86.275C389.281 86.625 389.397 86.9167 389.631 87.15C389.864 87.3833 390.222 87.5417 390.706 87.625L393.206 88.1C394.289 88.3 395.106 88.6667 395.656 89.2C396.222 89.7333 396.506 90.45 396.506 91.35C396.506 92.5667 396.031 93.525 395.081 94.225C394.131 94.9083 392.864 95.25 391.281 95.25ZM400.563 95.175C400.063 95.175 399.679 95.025 399.413 94.725C399.146 94.425 399.013 94.0083 399.013 93.475V84.3C399.013 83.75 399.146 83.3333 399.413 83.05C399.679 82.75 400.063 82.6 400.563 82.6C401.063 82.6 401.446 82.75 401.713 83.05C401.996 83.3333 402.138 83.75 402.138 84.3V93.475C402.138 94.0083 402.004 94.425 401.738 94.725C401.471 95.025 401.079 95.175 400.563 95.175ZM400.563 80.275C399.979 80.275 399.521 80.1333 399.188 79.85C398.871 79.55 398.713 79.1417 398.713 78.625C398.713 78.0917 398.871 77.6833 399.188 77.4C399.521 77.1167 399.979 76.975 400.563 76.975C401.163 76.975 401.621 77.1167 401.938 77.4C402.254 77.6833 402.413 78.0917 402.413 78.625C402.413 79.1417 402.254 79.55 401.938 79.85C401.621 80.1333 401.163 80.275 400.563 80.275ZM418.547 95.25C417.814 95.25 417.08 95.1917 416.347 95.075C415.614 94.975 414.922 94.8167 414.272 94.6C413.622 94.3667 413.039 94.0833 412.522 93.75C412.222 93.55 412.014 93.3083 411.897 93.025C411.78 92.7417 411.739 92.4667 411.772 92.2C411.822 91.9167 411.93 91.675 412.097 91.475C412.28 91.2583 412.505 91.125 412.772 91.075C413.039 91.025 413.33 91.1 413.647 91.3C414.38 91.7333 415.155 92.05 415.972 92.25C416.789 92.45 417.647 92.55 418.547 92.55C419.864 92.55 420.822 92.3333 421.422 91.9C422.022 91.45 422.322 90.875 422.322 90.175C422.322 89.5917 422.105 89.1333 421.672 88.8C421.255 88.4667 420.53 88.1917 419.497 87.975L416.747 87.4C415.164 87.0667 413.98 86.5083 413.197 85.725C412.43 84.925 412.047 83.875 412.047 82.575C412.047 81.7583 412.214 81.0167 412.547 80.35C412.88 79.6833 413.347 79.1083 413.947 78.625C414.564 78.1417 415.289 77.775 416.122 77.525C416.972 77.2583 417.905 77.125 418.922 77.125C419.922 77.125 420.872 77.25 421.772 77.5C422.672 77.75 423.48 78.1167 424.197 78.6C424.464 78.7833 424.639 79.0083 424.722 79.275C424.822 79.5417 424.847 79.8083 424.797 80.075C424.747 80.325 424.63 80.5417 424.447 80.725C424.264 80.9083 424.03 81.0167 423.747 81.05C423.48 81.0833 423.172 81 422.822 80.8C422.205 80.45 421.58 80.2 420.947 80.05C420.314 79.9 419.63 79.825 418.897 79.825C418.13 79.825 417.472 79.9333 416.922 80.15C416.372 80.3667 415.947 80.675 415.647 81.075C415.364 81.4583 415.222 81.9167 415.222 82.45C415.222 83.05 415.422 83.5333 415.822 83.9C416.222 84.25 416.905 84.525 417.872 84.725L420.597 85.3C422.247 85.65 423.472 86.2 424.272 86.95C425.089 87.7 425.497 88.7 425.497 89.95C425.497 90.75 425.33 91.475 424.997 92.125C424.68 92.775 424.214 93.3333 423.597 93.8C422.997 94.2667 422.272 94.625 421.422 94.875C420.572 95.125 419.614 95.25 418.547 95.25ZM429.843 95.2C429.327 95.2 428.927 95.0583 428.643 94.775C428.377 94.475 428.243 94.0667 428.243 93.55V78.825C428.243 78.2917 428.377 77.8833 428.643 77.6C428.927 77.3167 429.327 77.175 429.843 77.175C430.36 77.175 430.752 77.3167 431.018 77.6C431.302 77.8833 431.443 78.2917 431.443 78.825V93.55C431.443 94.0667 431.31 94.475 431.043 94.775C430.777 95.0583 430.377 95.2 429.843 95.2ZM443.774 95.25C441.824 95.25 440.174 94.8833 438.824 94.15C437.491 93.4167 436.474 92.375 435.774 91.025C435.074 89.675 434.724 88.075 434.724 86.225C434.724 84.825 434.924 83.5667 435.324 82.45C435.741 81.3333 436.332 80.3833 437.099 79.6C437.882 78.8 438.832 78.1917 439.949 77.775C441.066 77.3417 442.332 77.125 443.749 77.125C444.682 77.125 445.616 77.2417 446.549 77.475C447.499 77.6917 448.391 78.0667 449.224 78.6C449.507 78.7833 449.691 79.0083 449.774 79.275C449.874 79.5417 449.891 79.8167 449.824 80.1C449.757 80.3667 449.632 80.6 449.449 80.8C449.266 81 449.032 81.125 448.749 81.175C448.482 81.225 448.182 81.1583 447.849 80.975C447.216 80.6083 446.574 80.3417 445.924 80.175C445.274 80.0083 444.549 79.925 443.749 79.925C442.516 79.925 441.474 80.175 440.624 80.675C439.774 81.1583 439.132 81.8667 438.699 82.8C438.282 83.7333 438.074 84.875 438.074 86.225C438.074 88.275 438.566 89.8333 439.549 90.9C440.532 91.9667 441.991 92.5 443.924 92.5C444.591 92.5 445.266 92.4333 445.949 92.3C446.632 92.1667 447.299 91.9833 447.949 91.75L447.324 93.175V87.85H444.574C444.157 87.85 443.832 87.7417 443.599 87.525C443.382 87.3083 443.274 87.0167 443.274 86.65C443.274 86.2667 443.382 85.975 443.599 85.775C443.832 85.575 444.157 85.475 444.574 85.475H448.699C449.116 85.475 449.432 85.5917 449.649 85.825C449.882 86.0417 449.999 86.3583 449.999 86.775V92.85C449.999 93.2167 449.924 93.525 449.774 93.775C449.641 94.025 449.416 94.2083 449.099 94.325C448.366 94.5917 447.524 94.8167 446.574 95C445.624 95.1667 444.691 95.25 443.774 95.25ZM462.094 95.2C461.578 95.2 461.178 95.0583 460.894 94.775C460.628 94.475 460.494 94.0667 460.494 93.55V79C460.494 78.4667 460.636 78.0667 460.919 77.8C461.203 77.5167 461.603 77.375 462.119 77.375H468.144C470.078 77.375 471.569 77.8417 472.619 78.775C473.669 79.6917 474.194 80.9833 474.194 82.65C474.194 83.7333 473.953 84.6667 473.469 85.45C473.003 86.2333 472.319 86.8333 471.419 87.25C470.519 87.6667 469.428 87.875 468.144 87.875L468.369 87.5H469.194C469.878 87.5 470.469 87.6667 470.969 88C471.486 88.3333 471.936 88.8583 472.319 89.575L474.194 93.05C474.394 93.4 474.486 93.7417 474.469 94.075C474.453 94.4083 474.328 94.6833 474.094 94.9C473.861 95.1 473.519 95.2 473.069 95.2C472.619 95.2 472.253 95.1083 471.969 94.925C471.686 94.725 471.436 94.425 471.219 94.025L468.694 89.375C468.394 88.8083 468.036 88.4333 467.619 88.25C467.219 88.05 466.703 87.95 466.069 87.95H463.694V93.55C463.694 94.0667 463.561 94.475 463.294 94.775C463.028 95.0583 462.628 95.2 462.094 95.2ZM463.694 85.575H467.594C468.744 85.575 469.611 85.3417 470.194 84.875C470.794 84.3917 471.094 83.675 471.094 82.725C471.094 81.7917 470.794 81.0917 470.194 80.625C469.611 80.1417 468.744 79.9 467.594 79.9H463.694V85.575ZM483.041 95.25C481.657 95.25 480.466 94.9917 479.466 94.475C478.466 93.9583 477.691 93.225 477.141 92.275C476.607 91.325 476.341 90.2 476.341 88.9C476.341 87.6333 476.599 86.525 477.116 85.575C477.649 84.625 478.374 83.8833 479.291 83.35C480.224 82.8 481.282 82.525 482.466 82.525C483.332 82.525 484.107 82.6667 484.791 82.95C485.491 83.2333 486.082 83.6417 486.566 84.175C487.066 84.7083 487.441 85.3583 487.691 86.125C487.957 86.875 488.091 87.725 488.091 88.675C488.091 88.975 487.982 89.2083 487.766 89.375C487.566 89.525 487.274 89.6 486.891 89.6H478.866V87.8H485.891L485.491 88.175C485.491 87.4083 485.374 86.7667 485.141 86.25C484.924 85.7333 484.599 85.3417 484.166 85.075C483.749 84.7917 483.224 84.65 482.591 84.65C481.891 84.65 481.291 84.8167 480.791 85.15C480.307 85.4667 479.932 85.925 479.666 86.525C479.416 87.1083 479.291 87.8083 479.291 88.625V88.8C479.291 90.1667 479.607 91.1917 480.241 91.875C480.891 92.5417 481.841 92.875 483.091 92.875C483.524 92.875 484.007 92.825 484.541 92.725C485.091 92.6083 485.607 92.4167 486.091 92.15C486.441 91.95 486.749 91.8667 487.016 91.9C487.282 91.9167 487.491 92.0083 487.641 92.175C487.807 92.3417 487.907 92.55 487.941 92.8C487.974 93.0333 487.924 93.275 487.791 93.525C487.674 93.775 487.466 93.9917 487.166 94.175C486.582 94.5417 485.907 94.8167 485.141 95C484.391 95.1667 483.691 95.25 483.041 95.25ZM492.115 95.2C491.615 95.2 491.232 95.0667 490.965 94.8C490.699 94.5167 490.565 94.1167 490.565 93.6V78.75C490.565 78.2333 490.699 77.8417 490.965 77.575C491.232 77.3083 491.615 77.175 492.115 77.175C492.615 77.175 492.999 77.3083 493.265 77.575C493.549 77.8417 493.69 78.2333 493.69 78.75V87.975H493.74L497.865 83.625C498.199 83.2917 498.49 83.0333 498.74 82.85C498.99 82.6667 499.332 82.575 499.765 82.575C500.199 82.575 500.524 82.6917 500.74 82.925C500.974 83.1417 501.09 83.4083 501.09 83.725C501.09 84.0417 500.94 84.3583 500.64 84.675L496.29 89.275V87.975L501.065 93.125C501.365 93.4417 501.499 93.7667 501.465 94.1C501.449 94.4167 501.315 94.6833 501.065 94.9C500.815 95.1 500.499 95.2 500.115 95.2C499.649 95.2 499.274 95.1083 498.99 94.925C498.724 94.7417 498.424 94.4667 498.09 94.1L493.74 89.55H493.69V93.6C493.69 94.6667 493.165 95.2 492.115 95.2ZM508.144 95.25C506.76 95.25 505.719 94.8583 505.019 94.075C504.319 93.275 503.969 92.1083 503.969 90.575V78.75C503.969 78.2333 504.102 77.8417 504.369 77.575C504.635 77.3083 505.019 77.175 505.519 77.175C506.019 77.175 506.402 77.3083 506.669 77.575C506.952 77.8417 507.094 78.2333 507.094 78.75V90.425C507.094 91.1917 507.252 91.7583 507.569 92.125C507.902 92.4917 508.369 92.675 508.969 92.675C509.102 92.675 509.227 92.675 509.344 92.675C509.46 92.6583 509.577 92.6417 509.694 92.625C509.927 92.5917 510.085 92.6583 510.169 92.825C510.252 92.975 510.294 93.2917 510.294 93.775C510.294 94.1917 510.21 94.5167 510.044 94.75C509.877 94.9833 509.602 95.125 509.219 95.175C509.052 95.1917 508.877 95.2083 508.694 95.225C508.51 95.2417 508.327 95.25 508.144 95.25ZM515.977 95.25C515.094 95.25 514.302 95.0833 513.602 94.75C512.919 94.4 512.377 93.9333 511.977 93.35C511.594 92.7667 511.402 92.1083 511.402 91.375C511.402 90.475 511.635 89.7667 512.102 89.25C512.569 88.7167 513.327 88.3333 514.377 88.1C515.427 87.8667 516.835 87.75 518.602 87.75H519.852V89.55H518.627C517.594 89.55 516.769 89.6 516.152 89.7C515.535 89.8 515.094 89.975 514.827 90.225C514.577 90.4583 514.452 90.7917 514.452 91.225C514.452 91.775 514.644 92.225 515.027 92.575C515.41 92.925 515.944 93.1 516.627 93.1C517.177 93.1 517.66 92.975 518.077 92.725C518.51 92.4583 518.852 92.1 519.102 91.65C519.352 91.2 519.477 90.6833 519.477 90.1V87.225C519.477 86.3917 519.294 85.7917 518.927 85.425C518.56 85.0583 517.944 84.875 517.077 84.875C516.594 84.875 516.069 84.9333 515.502 85.05C514.952 85.1667 514.369 85.3667 513.752 85.65C513.435 85.8 513.152 85.8417 512.902 85.775C512.669 85.7083 512.485 85.575 512.352 85.375C512.219 85.1583 512.152 84.925 512.152 84.675C512.152 84.425 512.219 84.1833 512.352 83.95C512.485 83.7 512.71 83.5167 513.027 83.4C513.794 83.0833 514.527 82.8583 515.227 82.725C515.944 82.5917 516.594 82.525 517.177 82.525C518.377 82.525 519.36 82.7083 520.127 83.075C520.91 83.4417 521.494 84 521.877 84.75C522.26 85.4833 522.452 86.4333 522.452 87.6V93.6C522.452 94.1167 522.327 94.5167 522.077 94.8C521.827 95.0667 521.469 95.2 521.002 95.2C520.535 95.2 520.169 95.0667 519.902 94.8C519.652 94.5167 519.527 94.1167 519.527 93.6V92.4H519.727C519.61 92.9833 519.377 93.4917 519.027 93.925C518.694 94.3417 518.269 94.6667 517.752 94.9C517.235 95.1333 516.644 95.25 515.977 95.25ZM527.224 95.2C526.724 95.2 526.341 95.0667 526.074 94.8C525.807 94.5167 525.674 94.1167 525.674 93.6V84.15C525.674 83.6333 525.807 83.2417 526.074 82.975C526.341 82.7083 526.716 82.575 527.199 82.575C527.682 82.575 528.057 82.7083 528.324 82.975C528.591 83.2417 528.724 83.6333 528.724 84.15V85.975L528.449 85.225C528.782 84.3917 529.299 83.7333 529.999 83.25C530.699 82.7667 531.532 82.525 532.499 82.525C533.482 82.525 534.291 82.7583 534.924 83.225C535.557 83.6917 535.999 84.4083 536.249 85.375H535.899C536.232 84.4917 536.782 83.8 537.549 83.3C538.316 82.7833 539.199 82.525 540.199 82.525C541.132 82.525 541.899 82.7083 542.499 83.075C543.116 83.4417 543.574 84 543.874 84.75C544.174 85.4833 544.324 86.4167 544.324 87.55V93.6C544.324 94.1167 544.182 94.5167 543.899 94.8C543.632 95.0667 543.249 95.2 542.749 95.2C542.249 95.2 541.866 95.0667 541.599 94.8C541.332 94.5167 541.199 94.1167 541.199 93.6V87.675C541.199 86.7417 541.041 86.0583 540.724 85.625C540.424 85.1917 539.907 84.975 539.174 84.975C538.357 84.975 537.716 85.2667 537.249 85.85C536.782 86.4167 536.549 87.2083 536.549 88.225V93.6C536.549 94.1167 536.416 94.5167 536.149 94.8C535.882 95.0667 535.499 95.2 534.999 95.2C534.499 95.2 534.107 95.0667 533.824 94.8C533.557 94.5167 533.424 94.1167 533.424 93.6V87.675C533.424 86.7417 533.266 86.0583 532.949 85.625C532.649 85.1917 532.141 84.975 531.424 84.975C530.607 84.975 529.966 85.2667 529.499 85.85C529.032 86.4167 528.799 87.2083 528.799 88.225V93.6C528.799 94.6667 528.274 95.2 527.224 95.2ZM553.573 95.25C552.19 95.25 550.998 94.9917 549.998 94.475C548.998 93.9583 548.223 93.225 547.673 92.275C547.14 91.325 546.873 90.2 546.873 88.9C546.873 87.6333 547.131 86.525 547.648 85.575C548.181 84.625 548.906 83.8833 549.823 83.35C550.756 82.8 551.815 82.525 552.998 82.525C553.865 82.525 554.64 82.6667 555.323 82.95C556.023 83.2333 556.615 83.6417 557.098 84.175C557.598 84.7083 557.973 85.3583 558.223 86.125C558.49 86.875 558.623 87.725 558.623 88.675C558.623 88.975 558.515 89.2083 558.298 89.375C558.098 89.525 557.806 89.6 557.423 89.6H549.398V87.8H556.423L556.023 88.175C556.023 87.4083 555.906 86.7667 555.673 86.25C555.456 85.7333 555.131 85.3417 554.698 85.075C554.281 84.7917 553.756 84.65 553.123 84.65C552.423 84.65 551.823 84.8167 551.323 85.15C550.84 85.4667 550.465 85.925 550.198 86.525C549.948 87.1083 549.823 87.8083 549.823 88.625V88.8C549.823 90.1667 550.14 91.1917 550.773 91.875C551.423 92.5417 552.373 92.875 553.623 92.875C554.056 92.875 554.54 92.825 555.073 92.725C555.623 92.6083 556.14 92.4167 556.623 92.15C556.973 91.95 557.281 91.8667 557.548 91.9C557.815 91.9167 558.023 92.0083 558.173 92.175C558.34 92.3417 558.44 92.55 558.473 92.8C558.506 93.0333 558.456 93.275 558.323 93.525C558.206 93.775 557.998 93.9917 557.698 94.175C557.115 94.5417 556.44 94.8167 555.673 95C554.923 95.1667 554.223 95.25 553.573 95.25ZM53.525 129.2C53.0083 129.2 52.6083 129.058 52.325 128.775C52.0583 128.475 51.925 128.067 51.925 127.55V112.8C51.925 112.267 52.0583 111.867 52.325 111.6C52.6083 111.317 53.0083 111.175 53.525 111.175C54.0417 111.175 54.4333 111.317 54.7 111.6C54.9833 111.867 55.125 112.267 55.125 112.8V119.175H55.175L62.35 111.975C62.6167 111.708 62.8833 111.508 63.15 111.375C63.4167 111.242 63.7167 111.175 64.05 111.175C64.5333 111.175 64.875 111.3 65.075 111.55C65.2917 111.8 65.375 112.092 65.325 112.425C65.2917 112.758 65.1333 113.067 64.85 113.35L57.55 120.575L57.575 119.125L65.2 126.875C65.55 127.208 65.7333 127.558 65.75 127.925C65.7667 128.292 65.65 128.6 65.4 128.85C65.1667 129.083 64.8167 129.2 64.35 129.2C63.95 129.2 63.625 129.117 63.375 128.95C63.1417 128.783 62.8667 128.542 62.55 128.225L55.175 120.85H55.125V127.55C55.125 128.067 54.9917 128.475 54.725 128.775C54.4583 129.058 54.0583 129.2 53.525 129.2ZM73.9586 129.25C72.5753 129.25 71.3836 128.992 70.3836 128.475C69.3836 127.958 68.6086 127.225 68.0586 126.275C67.5253 125.325 67.2586 124.2 67.2586 122.9C67.2586 121.633 67.5169 120.525 68.0336 119.575C68.5669 118.625 69.2919 117.883 70.2086 117.35C71.1419 116.8 72.2003 116.525 73.3836 116.525C74.2503 116.525 75.0253 116.667 75.7086 116.95C76.4086 117.233 77.0003 117.642 77.4836 118.175C77.9836 118.708 78.3586 119.358 78.6086 120.125C78.8753 120.875 79.0086 121.725 79.0086 122.675C79.0086 122.975 78.9003 123.208 78.6836 123.375C78.4836 123.525 78.1919 123.6 77.8086 123.6H69.7836V121.8H76.8086L76.4086 122.175C76.4086 121.408 76.2919 120.767 76.0586 120.25C75.8419 119.733 75.5169 119.342 75.0836 119.075C74.6669 118.792 74.1419 118.65 73.5086 118.65C72.8086 118.65 72.2086 118.817 71.7086 119.15C71.2253 119.467 70.8503 119.925 70.5836 120.525C70.3336 121.108 70.2086 121.808 70.2086 122.625V122.8C70.2086 124.167 70.5253 125.192 71.1586 125.875C71.8086 126.542 72.7586 126.875 74.0086 126.875C74.4419 126.875 74.9253 126.825 75.4586 126.725C76.0086 126.608 76.5253 126.417 77.0086 126.15C77.3586 125.95 77.6669 125.867 77.9336 125.9C78.2003 125.917 78.4086 126.008 78.5586 126.175C78.7253 126.342 78.8253 126.55 78.8586 126.8C78.8919 127.033 78.8419 127.275 78.7086 127.525C78.5919 127.775 78.3836 127.992 78.0836 128.175C77.5003 128.542 76.8253 128.817 76.0586 129C75.3086 129.167 74.6086 129.25 73.9586 129.25ZM87.1334 129.25C85.8501 129.25 84.7334 128.992 83.7834 128.475C82.8334 127.942 82.1001 127.192 81.5834 126.225C81.0667 125.258 80.8084 124.125 80.8084 122.825C80.8084 121.842 80.9501 120.967 81.2334 120.2C81.5334 119.417 81.9584 118.758 82.5084 118.225C83.0584 117.675 83.7251 117.258 84.5084 116.975C85.2917 116.675 86.1667 116.525 87.1334 116.525C87.6834 116.525 88.2751 116.6 88.9084 116.75C89.5584 116.9 90.1667 117.15 90.7334 117.5C91.0001 117.667 91.1751 117.867 91.2584 118.1C91.3417 118.333 91.3584 118.575 91.3084 118.825C91.2584 119.058 91.1501 119.267 90.9834 119.45C90.8334 119.617 90.6417 119.725 90.4084 119.775C90.1751 119.808 89.9167 119.75 89.6334 119.6C89.2667 119.383 88.8917 119.225 88.5084 119.125C88.1251 119.008 87.7584 118.95 87.4084 118.95C86.8584 118.95 86.3751 119.042 85.9584 119.225C85.5417 119.392 85.1834 119.642 84.8834 119.975C84.6001 120.292 84.3834 120.692 84.2334 121.175C84.0834 121.658 84.0084 122.217 84.0084 122.85C84.0084 124.083 84.3001 125.058 84.8834 125.775C85.4834 126.475 86.3251 126.825 87.4084 126.825C87.7584 126.825 88.1167 126.775 88.4834 126.675C88.8667 126.575 89.2501 126.417 89.6334 126.2C89.9167 126.05 90.1667 126 90.3834 126.05C90.6167 126.1 90.8084 126.217 90.9584 126.4C91.1084 126.567 91.2001 126.775 91.2334 127.025C91.2667 127.258 91.2334 127.492 91.1334 127.725C91.0501 127.958 90.8834 128.15 90.6334 128.3C90.0834 128.633 89.5001 128.875 88.8834 129.025C88.2667 129.175 87.6834 129.25 87.1334 129.25ZM97.2271 129.25C96.3438 129.25 95.5521 129.083 94.8521 128.75C94.1688 128.4 93.6271 127.933 93.2271 127.35C92.8438 126.767 92.6521 126.108 92.6521 125.375C92.6521 124.475 92.8855 123.767 93.3521 123.25C93.8188 122.717 94.5771 122.333 95.6271 122.1C96.6771 121.867 98.0855 121.75 99.8521 121.75H101.102V123.55H99.8771C98.8438 123.55 98.0188 123.6 97.4021 123.7C96.7855 123.8 96.3438 123.975 96.0771 124.225C95.8271 124.458 95.7021 124.792 95.7021 125.225C95.7021 125.775 95.8938 126.225 96.2771 126.575C96.6605 126.925 97.1938 127.1 97.8771 127.1C98.4271 127.1 98.9105 126.975 99.3271 126.725C99.7605 126.458 100.102 126.1 100.352 125.65C100.602 125.2 100.727 124.683 100.727 124.1V121.225C100.727 120.392 100.544 119.792 100.177 119.425C99.8105 119.058 99.1938 118.875 98.3271 118.875C97.8438 118.875 97.3188 118.933 96.7521 119.05C96.2021 119.167 95.6188 119.367 95.0021 119.65C94.6855 119.8 94.4021 119.842 94.1521 119.775C93.9188 119.708 93.7355 119.575 93.6021 119.375C93.4688 119.158 93.4021 118.925 93.4021 118.675C93.4021 118.425 93.4688 118.183 93.6021 117.95C93.7355 117.7 93.9605 117.517 94.2771 117.4C95.0438 117.083 95.7771 116.858 96.4771 116.725C97.1938 116.592 97.8438 116.525 98.4271 116.525C99.6271 116.525 100.61 116.708 101.377 117.075C102.16 117.442 102.744 118 103.127 118.75C103.51 119.483 103.702 120.433 103.702 121.6V127.6C103.702 128.117 103.577 128.517 103.327 128.8C103.077 129.067 102.719 129.2 102.252 129.2C101.785 129.2 101.419 129.067 101.152 128.8C100.902 128.517 100.777 128.117 100.777 127.6V126.4H100.977C100.86 126.983 100.627 127.492 100.277 127.925C99.9438 128.342 99.5188 128.667 99.0021 128.9C98.4855 129.133 97.8938 129.25 97.2271 129.25ZM108.474 129.2C107.974 129.2 107.591 129.067 107.324 128.8C107.057 128.517 106.924 128.117 106.924 127.6V118.15C106.924 117.633 107.057 117.242 107.324 116.975C107.591 116.708 107.966 116.575 108.449 116.575C108.932 116.575 109.307 116.708 109.574 116.975C109.841 117.242 109.974 117.633 109.974 118.15V119.975L109.699 119.225C110.032 118.392 110.549 117.733 111.249 117.25C111.949 116.767 112.782 116.525 113.749 116.525C114.732 116.525 115.541 116.758 116.174 117.225C116.807 117.692 117.249 118.408 117.499 119.375H117.149C117.482 118.492 118.032 117.8 118.799 117.3C119.566 116.783 120.449 116.525 121.449 116.525C122.382 116.525 123.149 116.708 123.749 117.075C124.366 117.442 124.824 118 125.124 118.75C125.424 119.483 125.574 120.417 125.574 121.55V127.6C125.574 128.117 125.432 128.517 125.149 128.8C124.882 129.067 124.499 129.2 123.999 129.2C123.499 129.2 123.116 129.067 122.849 128.8C122.582 128.517 122.449 128.117 122.449 127.6V121.675C122.449 120.742 122.291 120.058 121.974 119.625C121.674 119.192 121.157 118.975 120.424 118.975C119.607 118.975 118.966 119.267 118.499 119.85C118.032 120.417 117.799 121.208 117.799 122.225V127.6C117.799 128.117 117.666 128.517 117.399 128.8C117.132 129.067 116.749 129.2 116.249 129.2C115.749 129.2 115.357 129.067 115.074 128.8C114.807 128.517 114.674 128.117 114.674 127.6V121.675C114.674 120.742 114.516 120.058 114.199 119.625C113.899 119.192 113.391 118.975 112.674 118.975C111.857 118.975 111.216 119.267 110.749 119.85C110.282 120.417 110.049 121.208 110.049 122.225V127.6C110.049 128.667 109.524 129.2 108.474 129.2ZM132.823 129.25C131.94 129.25 131.148 129.083 130.448 128.75C129.765 128.4 129.223 127.933 128.823 127.35C128.44 126.767 128.248 126.108 128.248 125.375C128.248 124.475 128.481 123.767 128.948 123.25C129.415 122.717 130.173 122.333 131.223 122.1C132.273 121.867 133.681 121.75 135.448 121.75H136.698V123.55H135.473C134.44 123.55 133.615 123.6 132.998 123.7C132.381 123.8 131.94 123.975 131.673 124.225C131.423 124.458 131.298 124.792 131.298 125.225C131.298 125.775 131.49 126.225 131.873 126.575C132.256 126.925 132.79 127.1 133.473 127.1C134.023 127.1 134.506 126.975 134.923 126.725C135.356 126.458 135.698 126.1 135.948 125.65C136.198 125.2 136.323 124.683 136.323 124.1V121.225C136.323 120.392 136.14 119.792 135.773 119.425C135.406 119.058 134.79 118.875 133.923 118.875C133.44 118.875 132.915 118.933 132.348 119.05C131.798 119.167 131.215 119.367 130.598 119.65C130.281 119.8 129.998 119.842 129.748 119.775C129.515 119.708 129.331 119.575 129.198 119.375C129.065 119.158 128.998 118.925 128.998 118.675C128.998 118.425 129.065 118.183 129.198 117.95C129.331 117.7 129.556 117.517 129.873 117.4C130.64 117.083 131.373 116.858 132.073 116.725C132.79 116.592 133.44 116.525 134.023 116.525C135.223 116.525 136.206 116.708 136.973 117.075C137.756 117.442 138.34 118 138.723 118.75C139.106 119.483 139.298 120.433 139.298 121.6V127.6C139.298 128.117 139.173 128.517 138.923 128.8C138.673 129.067 138.315 129.2 137.848 129.2C137.381 129.2 137.015 129.067 136.748 128.8C136.498 128.517 136.373 128.117 136.373 127.6V126.4H136.573C136.456 126.983 136.223 127.492 135.873 127.925C135.54 128.342 135.115 128.667 134.598 128.9C134.081 129.133 133.49 129.25 132.823 129.25ZM148.07 129.25C146.986 129.25 146.078 129.067 145.345 128.7C144.628 128.333 144.095 127.8 143.745 127.1C143.395 126.383 143.22 125.5 143.22 124.45V119.125H141.92C141.52 119.125 141.211 119.025 140.995 118.825C140.778 118.608 140.67 118.317 140.67 117.95C140.67 117.567 140.778 117.275 140.995 117.075C141.211 116.875 141.52 116.775 141.92 116.775H143.22V114.5C143.22 113.983 143.353 113.592 143.62 113.325C143.903 113.058 144.295 112.925 144.795 112.925C145.295 112.925 145.678 113.058 145.945 113.325C146.211 113.592 146.345 113.983 146.345 114.5V116.775H148.995C149.395 116.775 149.703 116.875 149.92 117.075C150.136 117.275 150.245 117.567 150.245 117.95C150.245 118.317 150.136 118.608 149.92 118.825C149.703 119.025 149.395 119.125 148.995 119.125H146.345V124.275C146.345 125.075 146.52 125.675 146.87 126.075C147.22 126.475 147.786 126.675 148.57 126.675C148.853 126.675 149.103 126.65 149.32 126.6C149.536 126.55 149.728 126.517 149.895 126.5C150.095 126.483 150.261 126.55 150.395 126.7C150.528 126.833 150.595 127.117 150.595 127.55C150.595 127.883 150.536 128.183 150.42 128.45C150.32 128.7 150.128 128.875 149.845 128.975C149.628 129.042 149.345 129.1 148.995 129.15C148.645 129.217 148.336 129.25 148.07 129.25ZM156.089 129.25C155.206 129.25 154.414 129.083 153.714 128.75C153.031 128.4 152.489 127.933 152.089 127.35C151.706 126.767 151.514 126.108 151.514 125.375C151.514 124.475 151.748 123.767 152.214 123.25C152.681 122.717 153.439 122.333 154.489 122.1C155.539 121.867 156.948 121.75 158.714 121.75H159.964V123.55H158.739C157.706 123.55 156.881 123.6 156.264 123.7C155.648 123.8 155.206 123.975 154.939 124.225C154.689 124.458 154.564 124.792 154.564 125.225C154.564 125.775 154.756 126.225 155.139 126.575C155.523 126.925 156.056 127.1 156.739 127.1C157.289 127.1 157.773 126.975 158.189 126.725C158.623 126.458 158.964 126.1 159.214 125.65C159.464 125.2 159.589 124.683 159.589 124.1V121.225C159.589 120.392 159.406 119.792 159.039 119.425C158.673 119.058 158.056 118.875 157.189 118.875C156.706 118.875 156.181 118.933 155.614 119.05C155.064 119.167 154.481 119.367 153.864 119.65C153.548 119.8 153.264 119.842 153.014 119.775C152.781 119.708 152.598 119.575 152.464 119.375C152.331 119.158 152.264 118.925 152.264 118.675C152.264 118.425 152.331 118.183 152.464 117.95C152.598 117.7 152.823 117.517 153.139 117.4C153.906 117.083 154.639 116.858 155.339 116.725C156.056 116.592 156.706 116.525 157.289 116.525C158.489 116.525 159.473 116.708 160.239 117.075C161.023 117.442 161.606 118 161.989 118.75C162.373 119.483 162.564 120.433 162.564 121.6V127.6C162.564 128.117 162.439 128.517 162.189 128.8C161.939 129.067 161.581 129.2 161.114 129.2C160.648 129.2 160.281 129.067 160.014 128.8C159.764 128.517 159.639 128.117 159.639 127.6V126.4H159.839C159.723 126.983 159.489 127.492 159.139 127.925C158.806 128.342 158.381 128.667 157.864 128.9C157.348 129.133 156.756 129.25 156.089 129.25ZM167.286 129.2C166.786 129.2 166.403 129.067 166.136 128.8C165.87 128.517 165.736 128.117 165.736 127.6V118.15C165.736 117.633 165.87 117.242 166.136 116.975C166.403 116.708 166.778 116.575 167.261 116.575C167.745 116.575 168.12 116.708 168.386 116.975C168.653 117.242 168.786 117.633 168.786 118.15V119.85L168.511 119.225C168.878 118.342 169.445 117.675 170.211 117.225C170.995 116.758 171.878 116.525 172.861 116.525C173.845 116.525 174.653 116.708 175.286 117.075C175.92 117.442 176.395 118 176.711 118.75C177.028 119.483 177.186 120.417 177.186 121.55V127.6C177.186 128.117 177.053 128.517 176.786 128.8C176.52 129.067 176.136 129.2 175.636 129.2C175.136 129.2 174.745 129.067 174.461 128.8C174.195 128.517 174.061 128.117 174.061 127.6V121.7C174.061 120.75 173.878 120.058 173.511 119.625C173.161 119.192 172.611 118.975 171.861 118.975C170.945 118.975 170.211 119.267 169.661 119.85C169.128 120.417 168.861 121.175 168.861 122.125V127.6C168.861 128.667 168.336 129.2 167.286 129.2ZM189.047 129.2C188.531 129.2 188.131 129.058 187.847 128.775C187.581 128.475 187.447 128.067 187.447 127.55V112.8C187.447 112.267 187.581 111.867 187.847 111.6C188.131 111.317 188.531 111.175 189.047 111.175C189.564 111.175 189.956 111.317 190.222 111.6C190.506 111.867 190.647 112.267 190.647 112.8V119.175H190.697L197.872 111.975C198.139 111.708 198.406 111.508 198.672 111.375C198.939 111.242 199.239 111.175 199.572 111.175C200.056 111.175 200.397 111.3 200.597 111.55C200.814 111.8 200.897 112.092 200.847 112.425C200.814 112.758 200.656 113.067 200.372 113.35L193.072 120.575L193.097 119.125L200.722 126.875C201.072 127.208 201.256 127.558 201.272 127.925C201.289 128.292 201.172 128.6 200.922 128.85C200.689 129.083 200.339 129.2 199.872 129.2C199.472 129.2 199.147 129.117 198.897 128.95C198.664 128.783 198.389 128.542 198.072 128.225L190.697 120.85H190.647V127.55C190.647 128.067 190.514 128.475 190.247 128.775C189.981 129.058 189.581 129.2 189.047 129.2ZM209.031 129.25C207.764 129.25 206.664 128.992 205.731 128.475C204.798 127.958 204.073 127.225 203.556 126.275C203.039 125.308 202.781 124.175 202.781 122.875C202.781 121.892 202.923 121.017 203.206 120.25C203.506 119.467 203.931 118.8 204.481 118.25C205.031 117.683 205.689 117.258 206.456 116.975C207.223 116.675 208.081 116.525 209.031 116.525C210.298 116.525 211.398 116.783 212.331 117.3C213.264 117.817 213.989 118.55 214.506 119.5C215.023 120.45 215.281 121.575 215.281 122.875C215.281 123.858 215.131 124.742 214.831 125.525C214.548 126.308 214.131 126.983 213.581 127.55C213.031 128.1 212.373 128.525 211.606 128.825C210.839 129.108 209.981 129.25 209.031 129.25ZM209.031 126.875C209.648 126.875 210.189 126.725 210.656 126.425C211.123 126.125 211.481 125.683 211.731 125.1C211.998 124.5 212.131 123.758 212.131 122.875C212.131 121.542 211.848 120.55 211.281 119.9C210.714 119.233 209.964 118.9 209.031 118.9C208.414 118.9 207.873 119.05 207.406 119.35C206.939 119.633 206.573 120.075 206.306 120.675C206.056 121.258 205.931 121.992 205.931 122.875C205.931 124.192 206.214 125.192 206.781 125.875C207.348 126.542 208.098 126.875 209.031 126.875ZM222.035 129.25C220.652 129.25 219.61 128.858 218.91 128.075C218.21 127.275 217.86 126.108 217.86 124.575V112.75C217.86 112.233 217.994 111.842 218.26 111.575C218.527 111.308 218.91 111.175 219.41 111.175C219.91 111.175 220.294 111.308 220.56 111.575C220.844 111.842 220.985 112.233 220.985 112.75V124.425C220.985 125.192 221.144 125.758 221.46 126.125C221.794 126.492 222.26 126.675 222.86 126.675C222.994 126.675 223.119 126.675 223.235 126.675C223.352 126.658 223.469 126.642 223.585 126.625C223.819 126.592 223.977 126.658 224.06 126.825C224.144 126.975 224.185 127.292 224.185 127.775C224.185 128.192 224.102 128.517 223.935 128.75C223.769 128.983 223.494 129.125 223.11 129.175C222.944 129.192 222.769 129.208 222.585 129.225C222.402 129.242 222.219 129.25 222.035 129.25ZM229.869 129.25C228.985 129.25 228.194 129.083 227.494 128.75C226.81 128.4 226.269 127.933 225.869 127.35C225.485 126.767 225.294 126.108 225.294 125.375C225.294 124.475 225.527 123.767 225.994 123.25C226.46 122.717 227.219 122.333 228.269 122.1C229.319 121.867 230.727 121.75 232.494 121.75H233.744V123.55H232.519C231.485 123.55 230.66 123.6 230.044 123.7C229.427 123.8 228.985 123.975 228.719 124.225C228.469 124.458 228.344 124.792 228.344 125.225C228.344 125.775 228.535 126.225 228.919 126.575C229.302 126.925 229.835 127.1 230.519 127.1C231.069 127.1 231.552 126.975 231.969 126.725C232.402 126.458 232.744 126.1 232.994 125.65C233.244 125.2 233.369 124.683 233.369 124.1V121.225C233.369 120.392 233.185 119.792 232.819 119.425C232.452 119.058 231.835 118.875 230.969 118.875C230.485 118.875 229.96 118.933 229.394 119.05C228.844 119.167 228.26 119.367 227.644 119.65C227.327 119.8 227.044 119.842 226.794 119.775C226.56 119.708 226.377 119.575 226.244 119.375C226.11 119.158 226.044 118.925 226.044 118.675C226.044 118.425 226.11 118.183 226.244 117.95C226.377 117.7 226.602 117.517 226.919 117.4C227.685 117.083 228.419 116.858 229.119 116.725C229.835 116.592 230.485 116.525 231.069 116.525C232.269 116.525 233.252 116.708 234.019 117.075C234.802 117.442 235.385 118 235.769 118.75C236.152 119.483 236.344 120.433 236.344 121.6V127.6C236.344 128.117 236.219 128.517 235.969 128.8C235.719 129.067 235.36 129.2 234.894 129.2C234.427 129.2 234.06 129.067 233.794 128.8C233.544 128.517 233.419 128.117 233.419 127.6V126.4H233.619C233.502 126.983 233.269 127.492 232.919 127.925C232.585 128.342 232.16 128.667 231.644 128.9C231.127 129.133 230.535 129.25 229.869 129.25ZM241.066 129.2C240.566 129.2 240.182 129.067 239.916 128.8C239.649 128.517 239.516 128.117 239.516 127.6V112.75C239.516 112.233 239.649 111.842 239.916 111.575C240.182 111.308 240.566 111.175 241.066 111.175C241.566 111.175 241.949 111.308 242.216 111.575C242.499 111.842 242.641 112.233 242.641 112.75V121.975H242.691L246.816 117.625C247.149 117.292 247.441 117.033 247.691 116.85C247.941 116.667 248.282 116.575 248.716 116.575C249.149 116.575 249.474 116.692 249.691 116.925C249.924 117.142 250.041 117.408 250.041 117.725C250.041 118.042 249.891 118.358 249.591 118.675L245.241 123.275V121.975L250.016 127.125C250.316 127.442 250.449 127.767 250.416 128.1C250.399 128.417 250.266 128.683 250.016 128.9C249.766 129.1 249.449 129.2 249.066 129.2C248.599 129.2 248.224 129.108 247.941 128.925C247.674 128.742 247.374 128.467 247.041 128.1L242.691 123.55H242.641V127.6C242.641 128.667 242.116 129.2 241.066 129.2ZM256.822 129.25C255.939 129.25 255.147 129.083 254.447 128.75C253.764 128.4 253.222 127.933 252.822 127.35C252.439 126.767 252.247 126.108 252.247 125.375C252.247 124.475 252.48 123.767 252.947 123.25C253.414 122.717 254.172 122.333 255.222 122.1C256.272 121.867 257.68 121.75 259.447 121.75H260.697V123.55H259.472C258.439 123.55 257.614 123.6 256.997 123.7C256.38 123.8 255.939 123.975 255.672 124.225C255.422 124.458 255.297 124.792 255.297 125.225C255.297 125.775 255.489 126.225 255.872 126.575C256.255 126.925 256.789 127.1 257.472 127.1C258.022 127.1 258.505 126.975 258.922 126.725C259.355 126.458 259.697 126.1 259.947 125.65C260.197 125.2 260.322 124.683 260.322 124.1V121.225C260.322 120.392 260.139 119.792 259.772 119.425C259.405 119.058 258.789 118.875 257.922 118.875C257.439 118.875 256.914 118.933 256.347 119.05C255.797 119.167 255.214 119.367 254.597 119.65C254.28 119.8 253.997 119.842 253.747 119.775C253.514 119.708 253.33 119.575 253.197 119.375C253.064 119.158 252.997 118.925 252.997 118.675C252.997 118.425 253.064 118.183 253.197 117.95C253.33 117.7 253.555 117.517 253.872 117.4C254.639 117.083 255.372 116.858 256.072 116.725C256.789 116.592 257.439 116.525 258.022 116.525C259.222 116.525 260.205 116.708 260.972 117.075C261.755 117.442 262.339 118 262.722 118.75C263.105 119.483 263.297 120.433 263.297 121.6V127.6C263.297 128.117 263.172 128.517 262.922 128.8C262.672 129.067 262.314 129.2 261.847 129.2C261.38 129.2 261.014 129.067 260.747 128.8C260.497 128.517 260.372 128.117 260.372 127.6V126.4H260.572C260.455 126.983 260.222 127.492 259.872 127.925C259.539 128.342 259.114 128.667 258.597 128.9C258.08 129.133 257.489 129.25 256.822 129.25Z" fill="white"/>
</g>
</g>
<defs>
<filter id="filter0_d_231_1852" x="0" y="0" width="942" height="210" filterUnits="userSpaceOnUse" color-interpolation-filters="sRGB">
<feFlood flood-opacity="0" result="BackgroundImageFix"/>
<feColorMatrix in="SourceAlpha" type="matrix" values="0 0 0 0 0 0 0 0 0 0 0 0 0 0 0 0 0 0 127 0" result="hardAlpha"/>
<feOffset/>
<feGaussianBlur stdDeviation="2.5"/>
<feComposite in2="hardAlpha" operator="out"/>
<feColorMatrix type="matrix" values="0 0 0 0 0 0 0 0 0 0 0 0 0 0 0 0 0 0 0.25 0"/>
<feBlend mode="normal" in2="BackgroundImageFix" result="effect1_dropShadow_231_1852"/>
<feBlend mode="normal" in="SourceGraphic" in2="effect1_dropShadow_231_1852" result="shape"/>
</filter>
<clipPath id="clip0_231_1852">
<rect x="5" y="5" width="932" height="200" rx="20" fill="white"/>
</clipPath>
</defs>
</svg>
